<?xml version="1.0" encoding="UTF-8"?>
<svg id="c" data-name="keycap" xmlns="http://www.w3.org/2000/svg" width="1600" height="1600" viewBox="0 0 1600 1600">
  <path d="M1379.35,583.261l-174.643-325.575c-17.417-32.469-51.277-52.73-88.123-52.73H483.415c-36.845,0-70.706,20.261-88.123,52.73l-174.643,325.575c-7.797,14.536-11.878,30.775-11.878,47.27v711.673c0,55.228,44.771,100,100,100h982.455c55.229,0,100-44.772,100-100V630.531c0-16.495-4.08-32.734-11.878-47.27Zm-805.772-203.305c0-13.807,11.193-25,25-25h402.844c13.807,0,25,11.193,25,25V941.119c0,13.807-11.193,25-25,25h-402.844c-13.807,0-25-11.193-25-25V379.956Zm-113.057,574.596c0,14.14-2.999,28.119-8.798,41.015l-73.321,147.113c-3.135,11.197-19.63,8.931-19.63-2.696v-495.858c0-1.649,.408-3.273,1.188-4.727l81.749-149.75c4.915-9.163,18.812-5.671,18.812,4.727v460.177Zm653.929,337.652H485.55c-18.139,0-30.24-18.711-22.801-35.254l56.702-126.085c4.036-8.974,12.96-14.746,22.801-14.746h515.496c9.84,0,18.765,5.772,22.801,14.746l56.702,126.085c7.439,16.543-4.662,35.254-22.801,35.254Zm126.777-152.221c0,11.627-16.495,13.893-19.63,2.696l-73.321-147.113c-5.8-12.896-8.798-26.875-8.798-41.015V494.375c0-10.398,13.897-13.89,18.812-4.727l81.749,149.75c.78,1.454,1.188,3.078,1.188,4.727v495.858Z"/>
</svg>