<?xml version="1.0" encoding="utf-8"?>
<!-- Generator: Adobe Illustrator 26.0.2, SVG Export Plug-In . SVG Version: 6.00 Build 0)  -->
<svg version="1.1" xmlns="http://www.w3.org/2000/svg" xmlns:xlink="http://www.w3.org/1999/xlink" x="0px" y="0px" width="1500px"
	 height="1500px" viewBox="0 0 1500 1500" style="enable-background:new 0 0 1500 1500;" xml:space="preserve">
<style type="text/css">
	.st0{display:none;}
	.st1{fill:#D5300F;stroke:#1D7261;stroke-width:12;stroke-linecap:round;stroke-linejoin:round;stroke-miterlimit:10;}
	.st2{fill:#D5300F;}
	.st3{fill:#00E6AF;stroke:#1D7261;stroke-width:16;stroke-linecap:round;stroke-miterlimit:10;}
	.st4{fill:#9FA5AB;stroke:#1D7261;stroke-width:12;stroke-linecap:round;stroke-linejoin:round;stroke-miterlimit:10;}
	.st5{fill:#00E6AF;}
	.st6{fill:none;stroke:#1D7261;stroke-width:16;stroke-linecap:round;stroke-miterlimit:10;}
	.st7{fill:none;stroke:#1D7261;stroke-width:16;stroke-linecap:round;stroke-linejoin:round;stroke-miterlimit:10;}
	.st8{fill:#1D7261;stroke:#1D7261;stroke-width:10;stroke-linecap:round;stroke-miterlimit:10;}
	.st9{fill:#1D7261;}
	.st10{fill:#C7FCEF;stroke:#1D7261;stroke-width:16;stroke-linecap:round;stroke-linejoin:round;stroke-miterlimit:10;}
	.st11{fill:#02B1D6;}
	.st12{fill:none;stroke:#1D7261;stroke-width:10;stroke-miterlimit:10;}
	.st13{fill:#C7FCEF;}
	.st14{fill:#454240;stroke:#1D7261;stroke-width:12;stroke-linecap:round;stroke-miterlimit:10;}
	.st15{fill:#A75117;stroke:#1D7261;stroke-width:12;stroke-linecap:round;stroke-miterlimit:10;}
	.st16{fill:none;stroke:#1D7261;stroke-width:12;stroke-linecap:round;stroke-miterlimit:10;}
	.st17{fill:#EDC01F;}
</style>
<g id="kibi-404_xA0_Image_00000171718307591049222910000011522137636618240167_" class="st0">
	
		<image style="display:inline;overflow:visible;opacity:0.5;" width="1500" height="1500" id="kibi-404_xA0_Image" xlink:href="51566C9FAA2F371C.jpg" >
	</image>
</g>
<g id="Layer_2">
	<g id="right_arm_00000104665365679816567930000011967733203125093013_">
		<path class="st1" d="M259.2,1014c0,0-7.4,5.8,15.4,11.9c22.9,6.1,52.5,11.1,63.1,12.2c10.6,1.1,34.6,3.3,34.6,3.3
			s58.1-22.9,97.5-42.4c35-17.3,82.2-50.8,82.2-50.8l-98.7-26.1L370.6,954L259.2,1014z"/>
		<path class="st2" d="M257.3,917c0.8,1,1.3,92.5,1.3,92.5s-0.2,6.7,10.6,8c21.4,2.5,82.6-0.5,87.3-0.1s16-1,20.4-2.9
			c4.4-1.9,146.1-75.3,146.1-75.3l-44.8-52.5l-31.8,16L371.9,937c0,0-21.2-1.1-36.1-2.6c-14.9-1.5-47.3-12.7-52.5-14.5
			C278.1,918,257.3,917,257.3,917z"/>
		<path class="st1" d="M256.2,908.7c0,0-4.5,7,18.4,13.1c22.9,6.1,52.5,11.1,63.1,12.2c10.6,1.1,34.6,3.3,34.6,3.3L497.9,882
			l-44.7-63.9l-82.6,31.8L256.2,908.7z"/>
		<line class="st1" x1="258.4" y1="1017.7" x2="256.2" y2="908.7"/>
		<line class="st1" x1="372.3" y1="937.3" x2="372.3" y2="1041.5"/>
		<path id="right_arm" class="st3" d="M485.8,739.8c-21.7,13.9-41.2,16.9-60.9,19.6c-11.6,1.6-21.6,4.7-22.7,18.7
			c-1.7,21.6,2.4,43.6,11.3,63.1c6.4,14.1,38.7,5.6,50.7,5.6"/>
		<path class="st4" d="M418.7,793.8c-4.4-0.8-9-0.3-13.4,0.6c-9.1,1.7-17.9,4.7-26.4,8.4c-4.2,1.9-8.4,4-12.4,6.2
			c-3.3,1.8-7.1,3.5-9.8,6.2c-2.5,2.4-2.5,5.9-2.6,9.1c-0.9,18.4,1.2,37.1,6.2,54.8c1.7,6,3.6,15.8,11.9,14.6
			c5.3-0.8,10.4-2.5,15.2-4.6c2.5-1.1,5-2.4,6.7-4.4c2.7-3.1,2.1-7.9,1.4-11.6c-0.8-4.5-1.7-8.9-2.4-13.4c-1-6.2-3.1-13.4-2.4-19.7
			c0.2-1.7,8.4-4.7,11.9-5.6c5.7-1.4,11.5-2.8,17-4.8c4.1-1.5,8.1-4,10.2-7.9c1.3-2.4,1.8-5.1,2.1-7.8c1-8.7-2.1-17-11.2-19.6
			C420.1,794.1,419.4,793.9,418.7,793.8z"/>
	</g>
	<path class="st4" d="M417.7,917.3l2.4,36.6c0,0,22.5-10.1,25.9-13c3.3-3,0.4-36.2,0.4-36.2"/>
	<g id="body">
		<path class="st5" d="M532.4,945.1L511,993.3l-16.3-1.9c0,0-20-2.7-19.1,5.4c0.9,8.1-5.2,18.2,3.2,28c8.4,9.9,32.6,35.4,53.6,35.3
			c21-0.1,24.7,3.9,30.3-5.2c5.6-9.1,46.9-85.1,46.9-85.1s49,14.4,82.2,14.6c33.2,0.2,90-4.8,96.8-5.9c6.8-1,16.6-2.6,16.6-2.6
			l15.2,49.3v10.5c0,0-14.4,3-6.7,17.4c7.7,14.4,20.7,15.8,25.1,15.4c4.4-0.4,60.9-17.5,66-24.1s0-30.7,0-30.7l-9.8-44.1
			c0,0,30-14.6,41.5-18.6s27.9-23.4,33.5-31.8c5.6-8.4,16.2-23.2,15.5-33.5s10.8-128.1,10.8-128.1s-3.7-36.5-13.1-60.1
			c-9.4-23.6-29.1-63.7-36.9-69.6c-7.8-5.9-186.1-101-186.1-101L568.7,631.2l-66.4,64.5l-9.3,33.2c0,0-5.3,10.7-11.5,30.2
			c-6.2,19.4-24.8,58.4-21,73.1s7.1,49.7,12.3,59.7c5.2,10,32.2,49.8,38.3,48.3C517.1,938.7,532.4,945.1,532.4,945.1z"/>
		<path class="st6" d="M885.1,971.8c42.7-7.5,82.5-37.3,98.3-76.6c12.3-30.5,15.4-63.9,14.9-96.8c-0.6-40-5.8-81.2-21.7-118.2
			c-22.8-53-66.5-101.6-117.5-128.9c-51.8-27.8-114.6-29.5-171-16.8c-42.5,9.5-84.9,28-115.7,59.6c-34,34.8-57.6,83.5-76.4,127.7
			c-23.4,54.9-56.2,148.9-3.8,197.7c14.2,13.2,33.5,26,51.7,33"/>
		<path class="st7" d="M530.8,948.8L509,997.9c0,0-11.7-9.2-20.9-5.9c-13.1,4.7-15.3,21.8-9.2,32.8c3.2,5.9,8.5,10.3,14,14.1
			c9.8,6.8,20.6,12,31.9,15.5c8.5,2.6,26.5,8.8,35,3.9c1.3-0.8,2.2-2.1,3-3.4c17.4-28.5,32.1-52,50-80.3"/>
		<line class="st7" x1="805.2" y1="981.9" x2="824" y2="1035.8"/>
		<path class="st7" d="M896.6,974.7c4.4,21.1,8.7,42.2,13.3,63.2c0.2,0.8,0.4,1.7,0,2.5c-0.3,0.6-0.9,1.1-1.4,1.5
			c-22.7,16.2-50.3,27-78.4,27c-2.9,0-6-0.1-8.6-1.3c-7.2-3.1-9.3-12.9-6.5-20.3c2.4-6.2,7.4-11.1,13.3-14.2
			c5.9-3,12.6-4.3,19.2-4.6"/>
		<path class="st8" d="M837.7,749.2c-4.5,12.8-22.2,18.2-39.6,12.2c-17.4-6.1-27.9-21.4-23.4-34.2c3.8-10.9,16.5-12.7,26.7-10.9
			C815.2,718.7,844.4,730.2,837.7,749.2z"/>
		<path class="st8" d="M608.8,727.2c4.1,12.9-6.9,27.9-24.5,33.4c-17.6,5.5-35.2-0.5-39.2-13.5c-4.9-15.7,8.8-24.4,22.2-27.6
			C578.1,716.9,604.2,712.7,608.8,727.2z"/>
		
			<ellipse transform="matrix(0.2227 -0.9749 0.9749 0.2227 -46.9085 1271.0885)" class="st8" cx="773.6" cy="665" rx="12.3" ry="18.6"/>
		
			<ellipse transform="matrix(0.9687 -0.2484 0.2484 0.9687 -146.3292 174.4467)" class="st8" cx="618.1" cy="667.1" rx="18.5" ry="12.3"/>
		<g>
			<g>
				<path class="st9" d="M949.4,930.7c-8.6,12.5-9.5,28.4-6.8,43c2.1,11.2,7.2,22.1,18.7,26.1c12.8,4.5,27.8,5.6,40.9,2.2
					c13.9-3.6,25-12.5,32.4-24.7c7.7-12.7,12.7-31.7,5.2-45.5c-7-12.7-23-11.3-32.2-2.1c-10.9,10.8-12.2,28.6-8.5,42.7
					c1.9,7.2,5.5,13.7,9.6,19.8c3.9,5.6,8.2,11.4,15,13.5c7.4,2.3,14.6,0.5,21.7-1.5c8.4-2.4,16.6-5.4,24.3-9.4
					c14.7-7.6,27.2-18.9,35-33.6c2.1-4,2.1-10.2,0-14.1c-1.9-3.6-5.1-3.7-7.1,0c-10.4,19.6-31,30.5-51.4,36.8
					c-8.7,2.7-19.9,5.8-27-1.8c-5.7-6.1-13.1-16.4-12-25.3c1.1-8.3,9.2-14.8,17.4-14.5c3.2,0.1,8,2,8.6,4.7
					c0.9,3.9-2.4,10.1-4.2,13.4c-10,19.1-31.2,25.3-51.5,22.9c-8.3-1-20.1-2.5-24.1-11.1c-3.3-7-3.6-17.7,0.9-24.2
					c2.7-3.9,3.1-9.2,1.8-13.7C955.4,931.7,952.1,926.7,949.4,930.7L949.4,930.7z"/>
			</g>
		</g>
		<path class="st10" d="M764.6,588.6c0,0,64.7,19.1,94.8,38.2c9.2,5.8,18.1,12.3,26.3,19.6c6,5.4,11,11.5,16.3,17.6
			c1.1,1.2,2.2,2.5,3.8,3c2.4,0.7,4.9-0.9,6.8-2.5c8.3-6.7,15.6-14.7,21.5-23.7c5.1-7.7,13.1-19.6,7.3-28.9c-2.2-3.5-5.4-6-8.7-8.5
			c-12.1-10.3-25.2-19.9-38.8-28.1c-1.4-0.8-2.7-1.7-3.7-2.9c-3.8-5,12.2-35.4,17.3-49.1c1.3-3.4,5-5.1,8.4-3.8
			c9.8,3.9,28.4,10.6,38.7,14.4c4.2,1.5,8.9-0.4,10.9-4.4c7.5-15.3,13.6-31.1,19.5-47.1c1.2-3.3-0.1-7.1-3.2-8.8
			c-25.6-15.1-53.7-25.3-82.3-32.9c-15.3-4.1-30.7-7.4-46.2-10.4c-12.4-2.4-27-7.2-38.2,1.4c-7.2,5.5-10,14.9-12.5,23.7
			c-9.7,34.9-19.5,69.7-29.7,104.5C770.2,569.3,767.4,579,764.6,588.6z"/>
	</g>
	<g id="tongue">
		<path class="st11" d="M673.6,788.8c0,0.5,1.9,17.5,12,22.9c10,5.3,15.9,10.6,23.4,9.7s17.1,1.8,19-9.7c1.9-11.4-1.8-12.6-4.1-22.9
			c-2.3-10.3,6.5-14.9-5.4-13s-31.2,5.2-31.2,5.2L673.6,788.8z"/>
		<path class="st12" d="M673.6,789.4c3.3,7.2,6.6,14.5,11.7,20.5c4.6,5.4,10.7,9.7,17.6,11.1c6.9,1.4,14.7-0.6,19.4-5.9
			c4.1-4.6,5.4-11.1,4.6-17.2c-0.8-6.1-7.7-17-8.7-22.6"/>
		<g>
			<g>
				<path class="st9" d="M651,808.3c23.5-15.4,50.3-28.2,79.1-22.3c5.6,1.1,11.9-12.4,5.2-13.7c-30.4-6.2-59.6,7.4-84.5,23.7
					c-2.9,1.9-5.5,5.5-5.3,9.2C645.7,808.1,648.2,810.1,651,808.3L651,808.3z"/>
			</g>
		</g>
	</g>
	<g id="stomach">
		<path class="st13" d="M812.1,971.8c0,0,0.6-27.3,1.5-45.4c0.9-18.1-0.7-32.6-6.2-45c-5.5-12.4,1.2-14.1-12.2-17.5s-20.9,5-34.3,5
			s-75.3,7.5-95.4,5c-20.1-2.5-47.4-12.5-55.9-10.8s-10.3-9.5-17.8-0.2c-7.5,9.3-8.8,12.5-8.2,18.4s5.7,29.4,9,47
			c3.3,17.6,11.2,36.2,11.2,36.2l12.7,7.2c0,0,33.2,8.9,50.8,10.7c17.6,1.8,75.1-0.1,82.7-0.5S812.1,971.8,812.1,971.8z"/>
		<g>
			<g>
				<path class="st9" d="M605.6,960.2c-7.2-23.9-15.4-47.7-16.9-72.8c-0.4-7.8-0.5-20.5,9.9-21.4c6-0.5,11.9,2.5,17.5,4.3
					c7.5,2.4,15.4,3.4,23.2,4.4c30.7,3.6,61.7,3.1,92.4,0.7c15.7-1.2,31.4-2.9,47.1-4.8c5.9-0.7,13.1-3.3,17.9,1.1
					c3.3,3,5,7.5,6.2,11.7c3.3,11.4,4.2,24.2,5.2,36c1.5,17.4,1.3,35-1,52.3c-0.8,6.4,9.2,6.3,10,0c2.3-17,2.5-34.2,1.1-51.3
					c-1-11.9-2.1-24.4-4.8-36.1c-2.2-9.6-6.8-20.4-16.7-24.2c-6.8-2.6-15.9,0.3-22.9,1.1c-8.5,1-17,1.9-25.5,2.8
					c-34.6,3.4-69.6,4.9-104.2,1.3c-8.3-0.9-16.5-1.9-24.5-4.3c-6.9-2.1-13.7-5.2-21-4.9c-11.6,0.5-18.1,9.4-19.5,20.1
					c-1.5,11.1,0.8,22.3,2.5,33.3c2.7,18.3,9.1,35.8,14.4,53.4C597.8,969,607.5,966.4,605.6,960.2L605.6,960.2z"/>
			</g>
		</g>
		<g>
			<g>
				<path class="st9" d="M571.2,964.6c61.9,29.5,132,32.7,199.2,25c19.9-2.3,39.6-5.5,59.2-9.1c4.6-0.8,13.4-4.2,10.5-10.4
					c-2.7-6-13-6.9-18.5-5.9c-61,11.2-123.6,18.5-183.7,4.3c-15.4-3.7-31.1-9-45.5-15.9c-6.4-3.1-14.9-3.7-21.2,0
					C566.1,955.6,565.3,961.8,571.2,964.6L571.2,964.6z"/>
			</g>
		</g>
	</g>
	<g id="left_arm">
		<path class="st5" d="M916.3,810.3c-2.4-17.6,7.5-35.1,21.1-46.5c6.2-5.1,13.4-9.5,21.4-10.1c10.8-0.9,20.9,5,30.4,10.3
			c18.4,10.3,37.7,19.3,54.1,32.6c3.7,3,7.2,6.3,9.3,10.5c2.8,5.6,2.7,12.1,1.7,18.3c-3.9,25.5-22.9,48.8-47.9,55
			c-3.9,1-8.1,1.5-12,0.5c-6.2-1.5-10.9-6.8-15.9-10.5c-6.4-4.7-13-9.1-19.8-13c-13.5-7.8-27.8-14.1-42.6-18.7"/>
		<path class="st13" d="M985.2,846.9c2.8-3.4,3.7-8.5,2.8-12.8c-1.1-5.3-3.9-10.2-4.9-15.5c-1.2-6.3,0.2-13,3.9-18.3
			c4.3-6.2,10.5-8.9,17.6-10.4c3.1-0.7,10.5-1,9.1-6c-3.4-12.7-23.1-7.7-30.4-2.4c-15.7,11.5-23.6,32.8-19.8,51.5
			C965.3,841.4,975.3,858.8,985.2,846.9z"/>
		<g>
			<path class="st9" d="M916.3,810.3c-4-16.5,3.5-33.7,14.6-45.8c6-6.4,12.8-12.1,21.5-14.9c13.2-4.5,27.2,1.7,38.6,7.8
				c19,10.2,57.2,26.6,68.1,45c6.1,11.3,3.7,24.2,0.3,35.6c-6.2,19-20,35.8-38.3,44.2c-1.7,0.9-4.4,1.8-6.2,2.5
				c-0.9,0.3-2.3,0.8-3.2,1c-3.3,0.9-6.6,1.7-10.2,1.9c-10.9,1-18-5.4-24.9-12c-12-10.1-25.2-18.9-39-26.4
				c-7-3.8-14.2-7.3-21.6-10.5c15.8,3.1,31.3,8.7,45.9,16c7.4,3.8,14.4,7.9,21.2,12.6c5.4,3.8,10.2,9,17.2,7.7
				c21-3.7,37.9-21.8,43.9-41.8c2.6-9.4,4.9-19.5-1.6-26.3c-8-7.8-17.5-13.8-27.2-19.8c-10.1-6.1-20.9-11.9-31.1-18.1
				c-6.3-3.8-12.7-7.8-19.7-9.3c-10.6-2.4-20,3.3-28.4,10.3C924.7,780,915.9,794.3,916.3,810.3L916.3,810.3z"/>
		</g>
		<g>
			<g>
				<path class="st9" d="M978.4,842.8c-11.7-14-11.9-33.6-1.4-48.4c11.5-16.2,31.8-15.6,46-3c4.3,3.8,12.3-8.8,7.5-13
					c-8.7-7.7-19.9-11.5-31.4-9.9c-12,1.6-21.6,9.7-28.4,19.3c-13.8,19.5-17.8,47-1.6,66.3C973.4,859.3,982.1,847.3,978.4,842.8
					L978.4,842.8z"/>
			</g>
		</g>
	</g>
	<g id="hammer">
		<path class="st14" d="M1114.4,722.7c7.6,8,16.1,14.7,24.4,21.8c8.5,7.3,16.8,14.9,26.1,21.1c3.8,2.6,7.9,4.9,12.4,5.9
			c14.5,2.9,27.9-11.2,37.7-19.7c14.6-12.9,27.7-27.5,39-43.4c6-8.5,10.8-16.6,10.1-27.4c-0.6-9.3-5-17.8-10.9-24.8
			c-31.3-37-69.6-68.3-110.5-94.1c-7.3-4.6-15-9.1-23.5-9.8c-12.8-1.1-22.5,7.2-31.5,15.1c-15.6,13.7-31.6,28.1-42.4,46
			c-6.5,10.7-13.3,26.5-6,38.3c3.7,6,9.1,11.1,14.1,16c9.5,9.4,13.1,14.5,23.4,23c0.2,0.2,0.5,0.4,0.7,0.6"/>
		<path class="st15" d="M1007,775.3c23.6-27.9,47.1-56,70.6-84.1c12.7-15.1,30-37.1,51-20.7c13.4,10.5,1.7,23.8-6.8,33.3
			c-27,30.3-55,59.8-83.2,89.1"/>
		<path class="st16" d="M1114.4,722.7c7.6,8,16.1,14.7,24.4,21.8c8.5,7.3,16.8,14.9,26.1,21.1c3.8,2.6,7.9,4.9,12.4,5.9
			c14.5,2.9,27.9-11.2,37.7-19.7c14.6-12.9,27.7-27.5,39-43.4c6-8.5,10.8-16.6,10.1-27.4c-0.6-9.3-5-17.8-10.9-24.8
			c-31.3-37-69.6-68.3-110.5-94.1c-7.3-4.6-15-9.1-23.5-9.8c-12.8-1.1-22.5,7.2-31.5,15.1c-15.6,13.7-31.6,28.1-42.4,46
			c-6.5,10.7-13.3,26.5-6,38.3c3.7,6,9.1,11.1,14.1,16c9.5,9.4,13.1,14.5,23.4,23c0.2,0.2,0.5,0.4,0.7,0.6"/>
		<path class="st16" d="M1255.5,659.5c-11.8-9.2-24.8-2.4-34.7,5.9c-14.8,12.4-28.7,26.1-39.3,42.3c-7,10.7-15.1,21.8-18.9,34.2
			c-2.3,7.7-2.4,15.9,1.5,23.1"/>
	</g>
	<g id="hat">
		<path class="st17" d="M603.8,339.9c16.5,1.9,64.7,12.8,74.9,22.6c8.7,8.3,16.7,17.6,26.7,24.4c9.5,6.6,19.4,12.9,27.7,21
			c8.7,8.5,14.9,18.2,21.5,28.3c12,18.2,19,39.8,20.8,61.3c0.6,7.7,3.1,21.5-1.8,28.4c-14.2,20.3-41.8,36-59,48.5
			c-32.7,23.8-65.3,47.7-98,71.5c-30.8,22.5-68.5,55.6-108,57.7c-26.3,1.4-55.9-1.1-81.7-6.3c-8.6-1.7-32.8-3-25.1-17.6
			c4.4-8.2,30.6-26.1,25.9-34.3c0,0-5.5-27.1-9.6-41.3c-12.7-43.1-10.3-95.9,2.7-139.1c0,0,3.6-43.8,12.8-54.2
			c9.2-10.4,23.8-27.2,27.6-30c3.8-2.8,24-14.2,28.8-15.6s21.5-9.8,26.2-11.7c4.7-2,22.6-9.2,27.8-10.3c5.2-1.1,29.9-3.1,33.3-3.2
			C580.7,339.8,603.8,339.9,603.8,339.9z"/>
		<g>
			<g>
				<path class="st9" d="M425.8,653.7c40.9,6,83.1,4.6,123.2-5.8c39.7-10.3,74.6-30.1,107.3-54.4c18.3-13.6,35.9-28.1,54.3-41.6
					c5.2-3.9,4.9-16.3-2.9-10.4c-31.2,23.1-60.6,49.1-94.6,68.3c-35,19.7-74.6,30.7-114.6,33.3c-22.5,1.5-45.2,0.4-67.5-2.9
					C425.2,639.2,419.1,652.8,425.8,653.7L425.8,653.7z"/>
			</g>
		</g>
		<path class="st16" d="M506.1,648.9c-10.3-53.7-9.5-109.5,2.1-162.9c8.2-37.7,23.3-76.5,56.1-99.3c7.6-5.3,15.9-9.7,24.6-13
			c23.1-8.8,48.7-10.4,73.1-6.6c10.5,1.6,19.6,3.4,28.5,9.2"/>
		<path class="st16" d="M441.6,646.6c-18.3-51.5-26.1-106.8-22.7-161.3c2-31.9,3.9-68.2,26.9-91.1c39.6-39.5,109.3-61.7,158-54.3"/>
		<path class="st16" d="M529.5,646.6c-10.3-53.7-9.5-109.5,2.1-162.9c5.5-25.3,16-48.5,33.8-67.6c25.7-27.5,63.5-41.7,100.8-39
			c12.9,0.9,26.2,3.2,37.8,9"/>
		<path class="st16" d="M603.8,339.9c16.5,1.9,64.7,12.8,74.9,22.6c8.7,8.3,16.7,17.6,26.7,24.4c9.5,6.6,19.4,12.9,27.7,21
			c8.7,8.5,14.9,18.2,21.5,28.3c12,18.2,19,39.8,20.8,61.3c0.6,7.7,3.1,21.5-1.8,28.4c-14.2,20.3-41.8,36-59,48.5
			c-32.7,23.8-65.3,47.7-98,71.5c-30.8,22.5-68.5,55.6-108,57.7c-26.3,1.4-55.9-1.1-81.7-6.3c-8.6-1.7-32.8-3-25.1-17.6
			c4.4-8.2,30.6-26.1,25.9-34.3c0,0-5.5-27.1-9.6-41.3c-12.7-43.1-10.3-95.9,2.7-139.1"/>
	</g>
</g>
</svg>
