<?xml version="1.0" encoding="utf-8"?>
<svg viewBox="0 0 500 500" xmlns="http://www.w3.org/2000/svg">
  <defs>
    <linearGradient id="linear-gradient" x1="9.55" y1="-1715.77" x2="13.7" y2="-1728.51" gradientTransform="matrix(1, 0, 0, -1, 4.26, -1707.68)" gradientUnits="userSpaceOnUse">
      <stop offset="0" stop-color="#ff4ea3"/>
      <stop offset="1" stop-color="#ff5e5b"/>
    </linearGradient>
  </defs>
  <title>Kofi_Logo_Blue</title>
  <g id="Layer_1-2" data-name="Layer 1-2" transform="matrix(14.568558, 0, 0, 14.568558, -62.726917, -53.026264)" style="">
    <g id="Layer_1-3" data-name="Layer 1-3">
      <path class="cls-2" d="M30.4,21.9a15.48,15.48,0,0,1-2.2.1V14.8h1.5A3,3,0,0,1,32.2,16a3.57,3.57,0,0,1,.8,2.3A3.35,3.35,0,0,1,30.4,21.9Zm6.2-5a6.55,6.55,0,0,0-2.9-4.5A7.67,7.67,0,0,0,29.3,11H7.3a1.28,1.28,0,0,0-1.1,1.2v.3s-.1,9.7.1,15a3.29,3.29,0,0,0,3.3,3.1s10.1,0,14.9-.1h.7c2.8-.7,3-3.3,3-4.7C33.7,26,37.6,22.1,36.6,16.9Z" style="fill: rgb(255, 255, 255); stroke-linecap: round; stroke-linejoin: round; stroke-width: 1.14px;"/>
      <path class="cls-3" d="M17,26.4c.3.1.4,0,.4,0s3.5-3.2,5.1-5.1c1.4-1.7,1.5-4.4-.9-5.5S17.2,17,17.2,17a3.94,3.94,0,0,0-5.5-.6l-.1.1c-1.2,1.3-.8,3.5.1,4.7a60.17,60.17,0,0,0,5.1,5Z" style="fill: rgb(255, 94, 91);"/>
      <path class="cls-4" d="M17.2,26.5a.37.37,0,0,0,.3-.1s3.5-3.2,5.1-5.1c1.4-1.7,1.5-4.4-.9-5.5S17.3,17,17.3,17a3.94,3.94,0,0,0-5.5-.6l-.1.1c-1.2,1.3-.8,3.5.1,4.7A62.58,62.58,0,0,0,17,26.3C17,26.5,17.1,26.5,17.2,26.5Z" style="fill: url(#linear-gradient);"/>
    </g>
  </g>
</svg>