<?xml version="1.0" encoding="utf-8"?>
<svg viewBox="0 0 500 500" xmlns="http://www.w3.org/2000/svg">
  <g id="layer1" transform="matrix(0.712355, 0, 0, 0.712355, -6.447758, 7.134219)" style="">
    <g id="g40" transform="matrix(1.1421528,0,0,-1.1421528,265.93398,460.73095)">
      <g id="g4184">
        <path id="path38" style="fill-opacity: 1; fill-rule: nonzero; stroke: none; fill: rgb(255, 255, 255);" d="M 246.855 82.861 C 225.026 80.134 207.291 82.181 207.291 82.181 L 207.291 215.845 L 248.901 215.845 C 248.901 215.845 295.288 202.888 295.288 153.787 C 295.288 108.777 272.096 91.046 246.855 82.861 Z M 361.839 176.696 C 343.641 272.81 247.538 284.753 247.538 284.753 L -182.935 284.753 C -197.152 284.753 -198.9 265.986 -198.9 265.986 C -198.9 265.986 -200.818 93.691 -199.427 -12.12 C -195.57 -69.132 -138.58 -74.979 -138.58 -74.979 C -138.58 -74.979 55.9 -74.41 142.906 -73.842 C 200.265 -63.794 206.026 -13.479 205.458 14.041 C 307.816 8.354 380.035 80.582 361.839 176.696 Z M -2.548 2.116 C -12.977 12.488 -81.787 73.818 -97.442 95.132 C -114.119 117.838 -121.925 158.636 -99.571 182.406 C -77.216 206.176 -28.883 207.954 3.052 172.831 C 3.052 172.831 39.878 214.746 84.636 195.488 C 129.395 176.229 127.696 124.686 101.633 94.1 C 72.33 59.91 7.285 0.543 7.285 0.543 C 7.285 0.543 4.445 -2.238 0 0 C -1.788 1.321 -2.548 2.116 -2.548 2.116 Z"/>
      </g>
    </g>
  </g>
</svg>