<?xml version="1.0" encoding="utf-8"?>
<svg viewBox="0 0 500 500" xmlns="http://www.w3.org/2000/svg">
  <path style="fill: rgb(73, 117, 109);" d="M 414.173 476.422 L 252.338 472.554 L 253.73 418.779 L 238.288 418.922 L 239.017 471.824 L 73.467 472.301 L 73.836 182.308 L 153.563 103.125 L 242.168 182.255 L 334.908 103.073 L 414.217 182.255 L 414.173 476.422 Z" transform="matrix(-1, 0, 0, -1, 487.684006, 579.494995)"/>
  <path d="M 325.441 383.393 L 440.181 383.393 L 421.102 402.375 L 306.362 402.375 L 325.441 383.393 Z" style="fill: rgb(156, 238, 208);" transform="matrix(0.707107, -0.707107, 0.707107, 0.707107, -168.482251, 379.015869)"/>
  <path d="M 295.427 412.387 L 327.917 412.387 L 346.79 431.488 L 325.552 431.952 L 295.427 412.387 Z" style="fill: rgb(156, 238, 208);" transform="matrix(0.707921, 0.706292, -0.706292, 0.707921, 391.963927, -103.489391)"/>
  <rect x="173.93" y="170.73" width="117.884" height="117.9" style="fill: rgb(156, 238, 208);" transform="matrix(0.707107, -0.707107, 0.707107, 0.707107, 4.768107, 109.99044)"/>
  <rect x="350.448" y="167.541" width="237.523" height="115.699" style="fill: rgb(156, 238, 208);" transform="matrix(0.707107, -0.707107, 0.707107, 0.707107, -292.68866, 411.300385)"/>
  <rect x="165.909" y="170.73" width="112.448" height="117.9" style="fill: rgb(156, 238, 208);" transform="matrix(0.707107, -0.707107, 0.707107, 0.707107, 12.489875, 278.65271)"/>
  <rect x="165.909" y="170.73" width="112.448" height="117.9" style="fill: rgb(156, 238, 208);" transform="matrix(0.707107, -0.707107, 0.707107, 0.707107, -165.334641, 99.681694)"/>
  <path style="fill: rgb(73, 117, 109);" d="M 414.173 476.422 L 252.338 472.554 L 253.73 418.779 L 238.288 418.922 L 239.017 471.824 L 73.467 472.301 L 73.836 182.308 L 153.563 103.125 L 242.168 182.255 L 334.908 103.073 L 414.217 182.255 L 414.173 476.422 Z" transform="matrix(-1, 0, 0, -1, 487.684006, 579.494995)"/>
  <path d="M 413.873 338.861 L 413.804 365.774 L 332.707 446.871 L 332.707 446.905 L 332.69 446.888 L 332.671 446.907 L 332.671 446.871 L 317.345 432.233 L 309.837 397.106 L 332.759 419.974 Z" style="fill: rgb(156, 238, 208);"/>
  <rect x="173.93" y="170.73" width="117.884" height="117.9" style="fill: rgb(156, 238, 208);" transform="matrix(0.707107, -0.707107, 0.707107, 0.707107, 4.768107, 109.99044)"/>
  <rect x="350.448" y="167.541" width="237.523" height="115.699" style="fill: rgb(156, 238, 208);" transform="matrix(0.707107, -0.707107, 0.707107, 0.707107, -292.68866, 411.300385)"/>
  <rect x="165.909" y="170.73" width="112.448" height="117.9" style="fill: rgb(156, 238, 208);" transform="matrix(0.707107, -0.707107, 0.707107, 0.707107, 12.489879, 278.65271)"/>
  <rect x="165.909" y="170.73" width="112.448" height="117.9" style="fill: rgb(156, 238, 208);" transform="matrix(0.707107, -0.707107, 0.707107, 0.707107, -165.334641, 99.681694)"/>
  <path d="M 302.228 5 H 474.967 A 20.033 20.033 0 0 1 495 25.033 V 49.789 A 20.033 20.033 0 0 1 474.967 69.822 H 302.228 A 20.033 20.033 0 0 1 282.195 49.789 V 25.033 A 20.033 20.033 0 0 1 302.228 5 Z" style="fill: rgb(73, 117, 109);"/>
  <path d="M 376.558 42.77 L 373.058 42.77 C 372.171 42.77 371.728 42.333 371.728 41.46 L 371.728 34.35 C 371.728 33.477 372.171 33.04 373.058 33.04 L 376.428 33.04 C 377.475 33.04 378.285 33.267 378.858 33.72 C 379.431 34.18 379.718 34.79 379.718 35.55 C 379.718 36.057 379.591 36.5 379.338 36.88 C 379.085 37.253 378.735 37.533 378.288 37.72 C 378.828 37.887 379.245 38.163 379.538 38.55 C 379.838 38.943 379.988 39.43 379.988 40.01 C 379.988 40.863 379.681 41.537 379.068 42.03 C 378.455 42.523 377.618 42.77 376.558 42.77 Z M 374.158 34.9 L 374.158 36.9 L 375.968 36.9 C 376.428 36.9 376.765 36.82 376.978 36.66 C 377.198 36.493 377.308 36.24 377.308 35.9 C 377.308 35.56 377.198 35.31 376.978 35.15 C 376.765 34.983 376.428 34.9 375.968 34.9 L 374.158 34.9 Z M 374.158 38.77 L 374.158 40.91 L 376.218 40.91 C 376.685 40.91 377.028 40.82 377.248 40.64 C 377.461 40.46 377.568 40.19 377.568 39.83 C 377.568 39.47 377.461 39.203 377.248 39.03 C 377.028 38.857 376.685 38.77 376.218 38.77 L 374.158 38.77 ZM 387.425 42.77 L 382.745 42.77 C 381.859 42.77 381.415 42.333 381.415 41.46 L 381.415 34.35 C 381.415 33.477 381.859 33.04 382.745 33.04 L 387.425 33.04 C 388.085 33.04 388.415 33.363 388.415 34.01 C 388.415 34.67 388.085 35 387.425 35 L 383.845 35 L 383.845 36.85 L 387.115 36.85 C 387.782 36.85 388.115 37.177 388.115 37.83 C 388.115 38.483 387.782 38.81 387.115 38.81 L 383.845 38.81 L 383.845 40.81 L 387.425 40.81 C 388.085 40.81 388.415 41.137 388.415 41.79 C 388.415 42.443 388.085 42.77 387.425 42.77 ZM 393.517 42.89 C 393.117 42.89 392.807 42.78 392.587 42.56 C 392.361 42.34 392.247 42.023 392.247 41.61 L 392.247 35.11 L 390.087 35.11 C 389.387 35.11 389.037 34.767 389.037 34.08 C 389.037 33.387 389.387 33.04 390.087 33.04 L 396.957 33.04 C 397.657 33.04 398.007 33.387 398.007 34.08 C 398.007 34.767 397.657 35.11 396.957 35.11 L 394.787 35.11 L 394.787 41.61 C 394.787 42.023 394.681 42.34 394.467 42.56 C 394.247 42.78 393.931 42.89 393.517 42.89 ZM 398.214 42.89 C 397.781 42.89 397.464 42.743 397.264 42.45 C 397.057 42.157 397.057 41.79 397.264 41.35 L 400.694 33.95 C 400.861 33.59 401.064 33.33 401.304 33.17 C 401.544 33.003 401.824 32.92 402.144 32.92 C 402.457 32.92 402.734 33.003 402.974 33.17 C 403.214 33.33 403.417 33.59 403.584 33.95 L 407.014 41.35 C 407.227 41.797 407.237 42.167 407.044 42.46 C 406.851 42.747 406.547 42.89 406.134 42.89 C 405.767 42.89 405.484 42.81 405.284 42.65 C 405.084 42.483 404.907 42.217 404.754 41.85 L 404.314 40.8 L 399.964 40.8 L 399.524 41.85 C 399.357 42.217 399.187 42.483 399.014 42.65 C 398.841 42.81 398.574 42.89 398.214 42.89 Z M 402.144 35.69 L 402.114 35.69 L 400.794 38.85 L 403.474 38.85 L 402.144 35.69 Z" transform="matrix(5.455002784729004, 0, 0, 3.4468278884887695, -1733.2254638671875, -92.63253021240234)" style="fill: rgb(156, 238, 208); white-space: pre;"/>
</svg>