<?xml version="1.0" encoding="utf-8"?>
<svg viewBox="0 0 500 500" xmlns="http://www.w3.org/2000/svg">
  <path style="fill: #387062" d="M 414.173 476.422 L 252.338 472.554 L 253.73 418.779 L 238.288 418.922 L 239.017 471.824 L 73.467 472.301 L 73.836 182.308 L 153.563 103.125 L 242.168 182.255 L 334.908 103.073 L 414.217 182.255 L 414.173 476.422 Z" transform="matrix(-1, 0, 0, -1, 487.684006, 579.494995)"/>
  <path d="M 413.873 338.861 L 413.804 365.774 L 332.707 446.871 L 332.707 446.905 L 332.69 446.888 L 332.671 446.907 L 332.671 446.871 L 317.345 432.233 L 309.837 397.106 L 332.759 419.974 Z" style="fill: #60e2b2"/>
  <rect x="173.93" y="170.73" width="117.884" height="117.9" style="fill: #60e2b2" transform="matrix(0.707107, -0.707107, 0.707107, 0.707107, 4.767923, 109.990318)"/>
  <rect x="350.448" y="167.541" width="237.523" height="115.699" style="fill: #60e2b2" transform="matrix(0.707107, -0.707107, 0.707107, 0.707107, -292.688812, 411.300262)"/>
  <rect x="165.909" y="170.73" width="112.448" height="117.9" style="fill: #60e2b2" transform="matrix(0.707107, -0.707107, 0.707107, 0.707107, 12.489691, 278.652588)"/>
  <rect x="165.909" y="170.73" width="112.448" height="117.9" style="fill: #60e2b2" transform="matrix(0.707107, -0.707107, 0.707107, 0.707107, -165.334839, 99.681572)"/>
</svg>