<?xml version="1.0" encoding="utf-8"?>
<svg viewBox="0 0 500 500" xmlns="http://www.w3.org/2000/svg">
  <path style="fill: rgb(73, 117, 109);" d="M 414.173 476.422 L 252.338 472.554 L 253.73 418.779 L 238.288 418.922 L 239.017 471.824 L 73.467 472.301 L 73.836 182.308 L 153.563 103.125 L 242.168 182.255 L 334.908 103.073 L 414.217 182.255 L 414.173 476.422 Z" transform="matrix(-1, 0, 0, -1, 487.684006, 579.494995)"/>
  <path d="M 325.441 383.393 L 440.181 383.393 L 421.102 402.375 L 306.362 402.375 L 325.441 383.393 Z" style="fill: rgb(156, 238, 208);" transform="matrix(0.707107, -0.707107, 0.707107, 0.707107, -168.482251, 379.015869)"/>
  <path d="M 295.427 412.387 L 327.917 412.387 L 346.79 431.488 L 325.552 431.952 L 295.427 412.387 Z" style="fill: rgb(156, 238, 208);" transform="matrix(0.707921, 0.706292, -0.706292, 0.707921, 391.963927, -103.489391)"/>
  <rect x="173.93" y="170.73" width="117.884" height="117.9" style="fill: rgb(156, 238, 208);" transform="matrix(0.707107, -0.707107, 0.707107, 0.707107, 4.768244, 109.990356)"/>
  <rect x="350.448" y="167.541" width="237.523" height="115.699" style="fill: rgb(156, 238, 208);" transform="matrix(0.707107, -0.707107, 0.707107, 0.707107, -292.688507, 411.300293)"/>
  <rect x="165.909" y="170.73" width="112.448" height="117.9" style="fill: rgb(156, 238, 208);" transform="matrix(0.707107, -0.707107, 0.707107, 0.707107, 12.490011, 278.652618)"/>
  <rect x="165.909" y="170.73" width="112.448" height="117.9" style="fill: rgb(156, 238, 208);" transform="matrix(0.707107, -0.707107, 0.707107, 0.707107, -165.334503, 99.68161)"/>
  <path style="fill: rgb(73, 117, 109);" d="M 414.173 476.422 L 252.338 472.554 L 253.73 418.779 L 238.288 418.922 L 239.017 471.824 L 73.467 472.301 L 73.836 182.308 L 153.563 103.125 L 242.168 182.255 L 334.908 103.073 L 414.217 182.255 L 414.173 476.422 Z" transform="matrix(-1, 0, 0, -1, 487.684021, 579.494995)"/>
  <path d="M 413.873 338.861 L 413.804 365.774 L 332.707 446.871 L 332.707 446.905 L 332.69 446.888 L 332.671 446.907 L 332.671 446.871 L 317.345 432.233 L 309.837 397.106 L 332.759 419.974 Z" style="fill: rgb(156, 238, 208);"/>
  <rect x="173.93" y="170.73" width="117.884" height="117.9" style="fill: rgb(156, 238, 208);" transform="matrix(0.707107, -0.707107, 0.707107, 0.707107, 4.768244, 109.990356)"/>
  <rect x="350.448" y="167.541" width="237.523" height="115.699" style="fill: rgb(156, 238, 208);" transform="matrix(0.707107, -0.707107, 0.707107, 0.707107, -292.688507, 411.300293)"/>
  <rect x="165.909" y="170.73" width="112.448" height="117.9" style="fill: rgb(156, 238, 208);" transform="matrix(0.707107, -0.707107, 0.707107, 0.707107, 12.490012, 278.652618)"/>
  <rect x="165.909" y="170.73" width="112.448" height="117.9" style="fill: rgb(156, 238, 208);" transform="matrix(0.707107, -0.707107, 0.707107, 0.707107, -165.334503, 99.68161)"/>
</svg>