<?xml version="1.0" encoding="utf-8"?>
<svg viewBox="0 0 500 500" xmlns="http://www.w3.org/2000/svg">
  <path style="fill: #387062" d="M 420.219 476.422 L 258.384 472.554 L 259.776 418.779 L 244.334 418.922 L 245.063 471.824 L 79.513 472.301 L 79.882 182.308 L 159.609 103.125 L 248.214 182.255 L 340.954 103.073 L 420.263 182.255 L 420.219 476.422 Z" transform="matrix(-1, 0, 0, -1, 499.776001, 579.494995)"/>
  <path d="M 419.919 338.861 L 419.85 365.774 L 338.753 446.871 L 338.753 446.905 L 338.736 446.888 L 338.717 446.907 L 338.717 446.871 L 323.391 432.233 L 315.883 397.106 L 338.805 419.974 Z" style="fill: #60e2b2"/>
  <rect x="173.93" y="170.73" width="117.884" height="117.9" style="fill: #60e2b2" transform="matrix(0.707107, -0.707107, 0.707107, 0.707107, 10.813459, 109.990685)"/>
  <rect x="350.448" y="167.541" width="237.523" height="115.699" style="fill: #60e2b2" transform="matrix(0.707107, -0.707107, 0.707107, 0.707107, -286.643341, 411.300659)"/>
  <rect x="165.909" y="170.73" width="112.448" height="117.9" style="fill: #60e2b2" transform="matrix(0.707107, -0.707107, 0.707107, 0.707107, 18.535231, 278.652954)"/>
  <rect x="165.909" y="170.73" width="112.448" height="117.9" style="fill: #60e2b2" transform="matrix(0.707107, -0.707107, 0.707107, 0.707107, -159.289261, 99.681938)"/>
  <path d="M 299.307 14.649 L 472.046 14.649 C 483.11 14.649 492.079 23.618 492.079 34.682 L 492.079 59.438 C 492.079 70.502 483.11 79.471 472.046 79.471 L 299.307 79.471 C 288.243 79.471 279.274 70.502 279.274 59.438 L 279.274 34.682 C 279.274 23.618 288.243 14.649 299.307 14.649 Z" style="fill: #387062"/>
  <path d="M 317.978 64.437 L 298.886 64.437 C 294.047 64.437 291.631 62.931 291.631 59.922 L 291.631 35.415 C 291.631 32.406 294.047 30.9 298.886 30.9 L 317.269 30.9 C 322.98 30.9 327.399 31.682 330.525 33.244 C 333.65 34.829 335.216 36.932 335.216 39.551 C 335.216 41.299 334.523 42.826 333.143 44.136 C 331.763 45.421 329.854 46.386 327.415 47.031 C 330.361 47.606 332.636 48.558 334.234 49.892 C 335.871 51.246 336.689 52.925 336.689 54.924 C 336.689 57.864 335.014 60.187 331.67 61.887 C 328.326 63.586 323.761 64.437 317.978 64.437 Z M 304.886 37.311 L 304.886 44.204 L 314.76 44.204 C 317.269 44.204 319.107 43.929 320.269 43.377 C 321.469 42.802 322.069 41.93 322.069 40.758 C 322.069 39.586 321.469 38.724 320.269 38.173 C 319.107 37.597 317.269 37.311 314.76 37.311 L 304.886 37.311 Z M 304.886 50.65 L 304.886 58.026 L 316.124 58.026 C 318.671 58.026 320.542 57.716 321.742 57.096 C 322.904 56.475 323.488 55.545 323.488 54.304 C 323.488 53.063 322.904 52.142 321.742 51.546 C 320.542 50.95 318.671 50.65 316.124 50.65 L 304.886 50.65 Z M 377.258 64.437 L 351.728 64.437 C 346.895 64.437 344.473 62.931 344.473 59.922 L 344.473 35.415 C 344.473 32.406 346.895 30.9 351.728 30.9 L 377.258 30.9 C 380.858 30.9 382.658 32.013 382.658 34.243 C 382.658 36.518 380.858 37.655 377.258 37.655 L 357.729 37.655 L 357.729 44.032 L 375.567 44.032 C 379.205 44.032 381.022 45.159 381.022 47.41 C 381.022 49.661 379.205 50.788 375.567 50.788 L 357.729 50.788 L 357.729 57.682 L 377.258 57.682 C 380.858 57.682 382.658 58.809 382.658 61.059 C 382.658 63.31 380.858 64.437 377.258 64.437 Z M 410.49 64.851 C 408.308 64.851 406.617 64.472 405.416 63.713 C 404.184 62.955 403.562 61.863 403.562 60.439 L 403.562 38.035 L 391.779 38.035 C 387.96 38.035 386.051 36.852 386.051 34.484 C 386.051 32.096 387.96 30.9 391.779 30.9 L 429.255 30.9 C 433.073 30.9 434.983 32.096 434.983 34.484 C 434.983 36.852 433.073 38.035 429.255 38.035 L 417.417 38.035 L 417.417 60.439 C 417.417 61.863 416.839 62.955 415.672 63.713 C 414.472 64.472 412.748 64.851 410.49 64.851 Z M 436.112 64.851 C 433.75 64.851 432.021 64.344 430.93 63.334 C 429.8 62.324 429.8 61.059 430.93 59.543 L 449.64 34.036 C 450.551 32.795 451.659 31.899 452.968 31.348 C 454.277 30.772 455.804 30.486 457.55 30.486 C 459.257 30.486 460.768 30.772 462.078 31.348 C 463.387 31.899 464.494 32.795 465.405 34.036 L 484.116 59.543 C 485.278 61.084 485.332 62.359 484.279 63.369 C 483.227 64.358 481.568 64.851 479.315 64.851 C 477.313 64.851 475.77 64.575 474.679 64.024 C 473.588 63.448 472.622 62.531 471.787 61.266 L 469.387 57.647 L 445.658 57.647 L 443.258 61.266 C 442.347 62.531 441.419 63.448 440.476 64.024 C 439.532 64.575 438.076 64.851 436.112 64.851 Z M 457.55 40.034 L 457.386 40.034 L 450.186 50.926 L 464.805 50.926 L 457.55 40.034 Z" style="white-space: pre; fill: #60e2b2"/>
</svg>